<svg width="48" height="48" viewBox="0 0 48 48" fill="none" xmlns="http://www.w3.org/2000/svg">
<g filter="url(#filter0_d_9_1047)">
<path fill-rule="evenodd" clip-rule="evenodd" d="M8 8.00098H40C42.2092 8.00098 44 9.79184 44 12.001V36.001C44 38.2102 42.2092 40.001 40 40.001H8C5.79086 40.001 4 38.2102 4 36.001V12.001C4 9.79184 5.79086 8.00098 8 8.00098ZM27.3 30.901L40 22.001V17.801L25.3 28.101C24.5182 28.6436 23.4818 28.6436 22.7 28.101L8 17.801V22.001L20.7 30.901C22.682 32.2864 25.318 32.2864 27.3 30.901Z" fill="black"/>
</g>
<defs>
<filter id="filter0_d_9_1047" x="-4" y="0" width="56" height="56" filterUnits="userSpaceOnUse" color-interpolation-filters="sRGB">
<feFlood flood-opacity="0" result="BackgroundImageFix"/>
<feColorMatrix in="SourceAlpha" type="matrix" values="0 0 0 0 0 0 0 0 0 0 0 0 0 0 0 0 0 0 127 0" result="hardAlpha"/>
<feOffset dy="4"/>
<feGaussianBlur stdDeviation="2"/>
<feComposite in2="hardAlpha" operator="out"/>
<feColorMatrix type="matrix" values="0 0 0 0 0 0 0 0 0 0 0 0 0 0 0 0 0 0 0.25 0"/>
<feBlend mode="normal" in2="BackgroundImageFix" result="effect1_dropShadow_9_1047"/>
<feBlend mode="normal" in="SourceGraphic" in2="effect1_dropShadow_9_1047" result="shape"/>
</filter>
</defs>
</svg>
